<svg data-v-0dd9719b="" version="1.0" xmlns="http://www.w3.org/2000/svg" xmlns:xlink="http://www.w3.org/1999/xlink" width="100%" height="100%" viewBox="0 0 340.000000 250.000000" preserveAspectRatio="xMidYMid meet" color-interpolation-filters="sRGB" style="margin: auto;"> <rect data-v-0dd9719b="" x="0" y="0" width="100%" height="100%" fill="#fff" fill-opacity="1" class="background"></rect> <rect data-v-0dd9719b="" x="0" y="0" width="100%" height="100%" fill="url(#watermark)" fill-opacity="1" class="watermarklayer"></rect> <g data-v-0dd9719b="" fill="#8f34e7" class="icon-text-wrapper icon-svg-group iconsvg" transform="translate(47.910003662109375,95.7815933227539)"><g class="iconsvg-imagesvg" transform="translate(0,0)"><g><rect fill="#8f34e7" fill-opacity="0" stroke-width="2" x="0" y="0" width="60" height="58.436815193571945" class="image-rect"></rect> <svg x="0" y="0" width="60" height="58.436815193571945" filtersec="colorsb1135497871" class="image-svg-svg primary" style="overflow: visible;"><svg xmlns="http://www.w3.org/2000/svg" viewBox="0 0 184.58999633789062 179.77999877929688"><title>资源 43</title><g><g fill="#8f34e7"><path d="M99.41 152.72H85.15V53.59h84.79v-39H14.63v38.76h28.42v14.3H0V0h184.59v67.93H99.41z"></path><path d="M56.9 40.75H27.44V26.53h130.1v14.16h-85.8v124.38h40.9V82.66h14.3v97.12h-70z"></path></g></g></svg></svg> <!----></g></g> <g transform="translate(67,4.7271575927734375)"><g data-gra="path-name" fill-rule="" class="tp-name iconsvg-namesvg" transform="translate(0,0)"><g transform="scale(1)"><g><path d="M26.3-26.16L27.98-28.27 31.08-25.59 30.94-25.31 18.7-25.31Q18.56-23.63 18.28-18.84L18.28-18.84Q18.14-17.02 18.14-16.31L18.14-16.31 28.97-16.31 30.66-18.42 33.89-15.89 33.75-15.47 19.27-15.47Q22.36-2.53 34.17-0.14L34.17-0.14 34.17 0.42Q31.64 0.42 29.81 1.97L29.81 1.97Q20.39-2.53 18.42-15.47L18.42-15.47 18.14-15.47Q18-2.11 1.69 3.09L1.69 3.09 1.41 2.53Q15.75-4.08 15.61-15.47L15.61-15.47 5.06-15.47 2.95-15.05 1.97-16.31 15.75-16.31Q16.17-22.36 16.17-25.31L16.17-25.31 7.31-25.31 5.48-24.89 4.78-26.16 26.3-26.16ZM55.55-24.33L55.55-29.67Q56.25-29.53 57.38-29.11L57.38-29.11Q58.36-28.55 59.06-28.27L59.06-28.27 57.8-27.14 57.8-24.33 62.72-24.33 63.98-25.88 66.94-23.91 65.39-22.5 65.39-19.97 66.23-19.97 67.78-21.94 70.59-19.41 70.59-19.13 65.53-19.13 65.67-13.5Q64.27-12.38 63.42-12.66L63.42-12.66 63.42-14.48 57.8-14.48 57.8-10.13 63.7-10.13 65.53-12.09 68.63-9.7 68.48-9.28 57.8-9.28 57.8-5.06 65.95-5.06 67.36-7.17 71.16-4.64 71.02-4.22 57.8-4.22 57.8 2.95Q56.95 3.94 55.41 4.36L55.41 4.36Q55.55 1.69 55.55-4.22L55.55-4.22 47.25-4.22 45.98-3.94 45.28-5.06 55.55-5.06 55.55-9.28 49.5-9.28 48.23-9 47.39-10.13 55.55-10.13 55.55-14.48 49.5-14.48 48.38-14.2 47.81-15.19 55.55-15.19 55.55-19.13 48.52-19.13 47.11-18.7 46.55-19.69Q42.89-6.61 42.75-6.19L42.75-6.19Q42.61-4.78 42.89-1.41L42.89-1.41Q43.31 2.11 42.75 2.67L42.75 2.67Q41.2 2.95 40.22 1.27L40.22 1.27Q40.08 1.13 40.5-0.42L40.5-0.42Q41.2-4.22 40.78-5.77L40.78-5.77Q40.5-6.47 37.69-6.89L37.69-6.89 37.83-7.31Q41.2-7.17 41.34-8.44L41.34-8.44Q42.75-11.39 47.11-24.61L47.11-24.61 47.81-24.33 46.69-19.97 55.55-19.97 55.55-23.48 51.05-23.48 49.36-23.34 48.66-24.33 55.55-24.33ZM39.52-28.13L39.66-28.41Q42.89-27.42 44.72-26.02L44.72-26.02Q46.41-23.34 43.88-22.36L43.88-22.36Q43.45-22.36 43.03-23.48L43.03-23.48Q41.91-26.02 39.52-28.13L39.52-28.13ZM63.42-23.48L57.8-23.48 57.8-19.97 63.42-19.97 63.42-23.48ZM36.84-20.81L36.98-21.09Q41.06-19.69 42.19-18.14L42.19-18.14Q42.89-15.47 40.78-15.05L40.78-15.05Q40.5-15.19 40.36-15.89L40.36-15.89Q39.52-18.56 36.84-20.81L36.84-20.81ZM63.42-15.19L63.42-19.13 57.8-19.13 57.8-15.19 63.42-15.19ZM81.14-29.67L81.14-29.67Q82.69-28.97 84.38-27.7L84.38-27.7Q84.38-27.56 84.09-27.56L84.09-27.56Q83.25-27.28 82.97-26.58L82.97-26.58Q82.27-25.17 81-22.64L81-22.64Q79.31-19.13 79.45-19.27L79.45-19.27Q80.58-18.56 81.56-17.86L81.56-17.86Q81.42-17.58 80.58-16.88L80.58-16.88 80.3 3.23Q79.03 4.22 77.77 4.36L77.77 4.36Q78.19-1.27 78.47-17.58L78.47-17.58Q75.23-12.38 73.13-10.13L73.13-10.13 72.7-10.41Q78.61-19.97 81.14-29.67ZM90.28-29.39L90.28-29.39Q92.81-28.55 94.08-27.98L94.08-27.98Q94.08-27.84 93.8-27.7L93.8-27.7Q92.95-27.14 92.81-26.16L92.81-26.16Q92.81-23.48 92.53-19.13L92.53-19.13 101.11-19.13 102.94-21.23 106.17-18.7 106.03-18.28 96.33-18.28Q96.33-14.63 96.19-7.88L96.19-7.88Q96.19-3.09 96.19-1.27L96.19-1.27Q95.91 1.69 98.02 1.55L98.02 1.55Q102.38 1.55 102.94 1.13L102.94 1.13Q103.5 0.98 104.48-6.05L104.48-6.05 104.91-6.05Q104.48 0.7 106.59 0.7L106.59 0.7Q106.17 3.09 104.63 3.38L104.63 3.38Q103.08 3.66 99.56 3.66L99.56 3.66Q96.75 3.52 95.77 3.23L95.77 3.23Q93.8 2.95 94.08 0L94.08 0Q93.94-1.69 94.08-10.55L94.08-10.55Q94.22-15.33 94.22-18.28L94.22-18.28 92.39-18.28Q92.11-9.7 89.44-4.64L89.44-4.64Q86.48 0.42 81.42 3.94L81.42 3.94 81.14 3.52Q85.78-0.7 87.89-5.77L87.89-5.77Q90-10.41 90.28-18.28L90.28-18.28 84.66-18.28 82.97-18 82.27-19.13 90.42-19.13Q90.42-19.83 90.42-21.38L90.42-21.38Q90.56-27.28 90.28-29.39ZM95.2-26.86L95.34-27.28Q100.13-26.02 100.83-25.31L100.83-25.31Q102.09-23.2 100.13-21.94L100.13-21.94Q99.7-22.08 99.14-22.92L99.14-22.92Q97.88-25.31 95.2-26.86L95.2-26.86ZM133.03-29.39L133.03-29.39Q136.13-27.28 135.98-27.14L135.98-27.14Q135.98-27 135.7-26.86L135.7-26.86Q134.86-26.72 134.3-25.88L134.3-25.88Q133.88-25.31 133.03-24.05L133.03-24.05Q131.34-21.8 130.08-19.69L130.08-19.69 137.39-19.69Q137.67-19.69 138.52-20.67L138.52-20.67Q139.22-21.52 139.36-21.52L139.36-21.52Q141.89-19.41 142.45-18.56L142.45-18.56Q142.31-18.42 141.75-18.28L141.75-18.28Q139.08-17.86 136.13-14.91L136.13-14.91 135.84-15.33Q138.09-18.42 137.81-18.84L137.81-18.84 113.06-18.84Q112.92-15.89 112.36-14.63L112.36-14.63Q110.11-12.94 109.13-14.77L109.13-14.77Q109.13-15.19 109.83-16.03L109.83-16.03Q112.08-18.14 111.94-21.23L111.94-21.23 112.5-21.23Q112.92-20.39 112.92-19.69L112.92-19.69 129.23-19.69Q131.63-24.61 133.03-29.39ZM122.63-29.11L122.91-29.25Q126.28-26.3 126.98-24.19L126.98-24.19Q127.27-21.94 125.16-21.09L125.16-21.09Q124.45-21.09 124.31-23.2L124.31-23.2Q123.89-26.86 122.63-29.11L122.63-29.11ZM114.61-28.13L115.03-28.41Q118.83-25.88 120.09-23.91L120.09-23.91Q120.8-21.66 118.41-20.67L118.41-20.67Q117.98-20.67 117.7-21.94L117.7-21.94Q116.72-25.45 114.61-28.13L114.61-28.13ZM132.47-15.89L132.47-15.89Q134.86-14.2 135.56-12.94L135.56-12.94Q135.56-12.8 134.58-12.8L134.58-12.8Q133.03-12.94 132.47-12.66L132.47-12.66Q128.67-10.69 126.84-8.86L126.84-8.86 126.84-6.89 136.41-6.89 138.38-9.42 141.75-6.61 141.61-6.05 126.84-6.05 126.84 1.13Q126.28 3.38 123.33 4.08L123.33 4.08Q123.33 1.41 118.41 0.28L118.41 0.28 118.55-0.28Q125.58 0.98 124.45-0.28L124.45-0.28 124.45-6.05 111.09-6.05 109.69-5.77 109.13-6.89 124.45-6.89Q124.45-9.7 124.31-10.55L124.31-10.55 126.42-9.84Q126.7-10.13 127.41-10.69L127.41-10.69Q130.92-14.06 130.22-13.78L130.22-13.78 117.28-13.78 115.31-13.36 114.75-14.63 130.78-14.63Q130.92-14.63 131.63-15.33L131.63-15.33Q132.33-15.89 132.47-15.89ZM148.36-27.98L148.5-28.41Q152.58-27 153.98-25.73L153.98-25.73Q154.83-23.91 153.14-22.5L153.14-22.5Q152.72-22.5 152.16-23.63L152.16-23.63Q150.61-26.58 148.36-27.98L148.36-27.98ZM172.69-25.31L174.52-27.56 177.47-24.75 177.33-24.47 161.86-24.47Q161.16-24.47 161.16-23.63L161.16-23.63 161.16 0.56 173.67 0.56 175.5-1.69 178.59 0.98 178.31 1.41 161.3 1.41Q161.16 1.41 160.59 2.11L160.59 2.11Q159.89 2.81 159.75 2.81L159.75 2.81Q158.34 1.83 157.5 0.84L157.5 0.84Q157.5 0.84 157.78 0.7L157.78 0.7Q158.77-0.14 158.77-0.98L158.77-0.98 158.77-26.72 161.58-25.31 172.69-25.31ZM156.94-24.61L156.94-24.61 157.22-24.19Q156.09-20.67 154.41-15.33L154.41-15.33Q152.58-9.98 151.73-7.03L151.73-7.03Q151.45-6.05 151.88-1.41L151.88-1.41Q152.16 2.39 151.88 2.67L151.88 2.67Q150.05 3.23 149.06 1.27L149.06 1.27Q149.06 0.56 149.34-0.7L149.34-0.7Q150.05-3.09 149.63-5.34L149.63-5.34Q149.63-6.47 146.25-6.89L146.25-6.89 146.25-7.17Q149.91-7.17 150.05-8.02L150.05-8.02Q150.61-9 154.27-18L154.27-18Q156.09-22.5 156.94-24.61ZM145.55-20.11L145.69-20.53Q150.05-18.98 151.03-17.44L151.03-17.44Q151.59-15.33 149.91-14.48L149.91-14.48Q149.63-14.34 148.92-15.61L148.92-15.61Q147.52-18.42 145.55-20.11L145.55-20.11Z" transform="translate(-1.409999966621399, 29.670000076293945)"></path></g> <!----> <!----> <!----> <!----> <!----> <!----> <!----></g></g> <g data-gra="path-slogan" fill-rule="" class="tp-slogan iconsvg-slogansvg" fill="#8f34e7" transform="translate(5,40.029998779296875)"><rect x="0" height="1" y="3.9750003814697266" width="19.794998168945312"></rect> <rect height="1" y="3.9750003814697266" width="19.794998168945312" x="147.38499450683594"></rect> <g transform="translate(22.794998168945312,0)"><g transform="scale(1)"><path d="M3.09-7.59L0.19-7.59L0.19-8.58L7.13-8.58L7.13-7.59L4.22-7.59L4.22 0L3.09 0L3.09-7.59ZM8.34-8.58L9.52-8.58L9.52 0L8.34 0L8.34-8.58ZM17.16 0L16.31-2.48L12.84-2.48L11.95 0L10.78 0L14.02-8.58L15.33-8.58L18.42 0L17.16 0ZM14.58-7.31L13.22-3.52L15.89-3.52L14.63-7.31L14.58-7.31ZM20.86-8.58L25.17-1.64L25.17-8.58L26.30-8.58L26.30 0L24.98 0L20.63-6.94L20.58-6.94L20.58 0L19.45 0L19.45-8.58L20.86-8.58ZM27.38-1.92L27.38-2.77L28.45-2.77L28.45-2.16Q28.45-0.75 29.77-0.75L29.77-0.75Q31.13-0.75 31.13-2.25L31.13-2.25L31.13-8.58L32.30-8.58L32.30-2.30Q32.25 0.09 29.81 0.14L29.81 0.14Q27.52 0.09 27.38-1.92L27.38-1.92ZM34.27-8.58L35.44-8.58L35.44 0L34.27 0L34.27-8.58ZM38.81-8.58L43.13-1.64L43.13-8.58L44.25-8.58L44.25 0L42.94 0L38.58-6.94L38.53-6.94L38.53 0L37.41 0L37.41-8.58L38.81-8.58ZM56.30-8.58L53.06-3.47L53.06 0L51.89 0L51.89-3.47L48.66-8.58L50.02-8.58L52.45-4.45L54.94-8.58L56.30-8.58ZM64.13-4.27L64.13-4.27Q63.94-7.64 61.13-7.83L61.13-7.83Q58.27-7.69 58.13-4.27L58.13-4.27Q58.27-0.94 61.13-0.80L61.13-0.80Q63.94-0.98 64.13-4.27ZM65.30-4.27L65.30-4.27Q65.02 0 61.13 0.14L61.13 0.14Q57.19 0 56.91-4.27L56.91-4.27Q57.14-8.72 61.13-8.81L61.13-8.81Q65.02-8.67 65.30-4.27ZM72.33-3.19L72.33-8.58L73.50-8.58L73.50-3.05Q73.36 0.05 69.98 0.14L69.98 0.14Q66.84 0.05 66.70-2.86L66.70-2.86L66.70-8.58L67.88-8.58L67.88-3.19Q67.92-0.84 70.03-0.80L70.03-0.80Q72.33-0.84 72.33-3.19L72.33-3.19ZM82.03-8.58L79.13-4.41L82.17 0L80.72 0L78.38-3.52L76.03 0L74.63 0L77.72-4.41L74.81-8.58L76.27-8.58L78.42-5.30L80.63-8.58L82.03-8.58ZM88.92-3.19L88.92-8.58L90.09-8.58L90.09-3.05Q89.95 0.05 86.58 0.14L86.58 0.14Q83.44 0.05 83.30-2.86L83.30-2.86L83.30-8.58L84.47-8.58L84.47-3.19Q84.52-0.84 86.63-0.80L86.63-0.80Q88.92-0.84 88.92-3.19L88.92-3.19ZM93.19-1.03L98.34-1.03L98.34 0L92.02 0L92.02-8.58L98.25-8.58L98.25-7.59L93.19-7.59L93.19-4.92L97.88-4.92L97.88-3.89L93.19-3.89L93.19-1.03ZM104.34-5.06L108.84-5.06L108.84-8.58L110.02-8.58L110.02 0L108.84 0L108.84-3.98L104.34-3.98L104.34 0L103.17 0L103.17-8.58L104.34-8.58L104.34-5.06ZM117.47-3.19L117.47-8.58L118.64-8.58L118.64-3.05Q118.50 0.05 115.13 0.14L115.13 0.14Q111.98 0.05 111.84-2.86L111.84-2.86L111.84-8.58L113.02-8.58L113.02-3.19Q113.06-0.84 115.17-0.80L115.17-0.80Q117.47-0.84 117.47-3.19L117.47-3.19ZM120.61-8.58L121.78-8.58L121.78 0L120.61 0L120.61-8.58Z" transform="translate(-0.1875, 8.8125)"></path></g></g></g></g></g><defs v-gra="od"></defs></svg>